<svg xmlns="http://www.w3.org/2000/svg" width="1024" height="1024" viewBox="0 0 1024 1024">
  <defs>
    <linearGradient id="g1Metal" x1="0%" y1="0%" x2="100%" y2="100%">
      <stop offset="0%" stop-color="#f5fbff"/>
      <stop offset="20%" stop-color="#d6e7f5"/>
      <stop offset="40%" stop-color="#9ab6c9"/>
      <stop offset="55%" stop-color="#eef7ff"/>
      <stop offset="75%" stop-color="#617786"/>
      <stop offset="100%" stop-color="#dce8f2"/>
    </linearGradient>
    <linearGradient id="movieMetal" x1="0%" y1="0%" x2="100%" y2="100%">
      <stop offset="0%" stop-color="#e4dccf"/>
      <stop offset="18%" stop-color="#8e8478"/>
      <stop offset="38%" stop-color="#4e4942"/>
      <stop offset="58%" stop-color="#b19573"/>
      <stop offset="78%" stop-color="#453a32"/>
      <stop offset="100%" stop-color="#cab596"/>
    </linearGradient>
    <filter id="shadow" x="-20%" y="-20%" width="140%" height="140%">
      <feDropShadow dx="0" dy="18" stdDeviation="18" flood-color="#000" flood-opacity="0.35"/>
    </filter>
  </defs>

  <g filter="url(#shadow)">
    <polygon fill="url(#g1Metal)" points="96,120 468,120 540,192 398,192 398,872 252,872 252,192 168,192 96,120"/>
    <polygon fill="#91a9bc" opacity="0.25" points="252,192 326,192 326,872 252,872"/>
    <polygon fill="#ffffff" opacity="0.18" points="118,132 438,132 404,166 154,166"/>

    <polygon fill="url(#movieMetal)" points="574,126 910,126 846,190 704,190 704,442 842,442 782,504 704,504 704,872 574,872"/>
    <polygon fill="#2a2622" opacity="0.35" points="704,190 744,190 744,872 704,872"/>
    <polygon fill="#ffffff" opacity="0.12" points="594,138 872,138 836,172 630,172"/>
    <polygon fill="#7e5840" opacity="0.28" points="728,214 838,214 804,246 728,246"/>
  </g>
</svg>
